
<svg version="1.1" id="Capa_1" xmlns="http://www.w3.org/2000/svg" xmlns:xlink="http://www.w3.org/1999/xlink" x="0px" y="0px"
	 width="278.155px" height="41.878px" viewBox="0 0 278.155 41.878" xml:space="preserve">
<g>
	<path fill="#fff" d="M28.379,21.539l-1.92,1.74v0.42h-0.54v-3.48l2.46-2.1v-1.68c0-1.2,0-2.46-0.6-2.46
		c-0.36,0-0.96,0.42-1.2,0.72l-0.48-0.6c1.98-1.56,3-2.64,4.68-4.56l0.659,0.66c-2.099,2.22-2.279,1.98-2.279,4.74v2.52l1.98-1.74
		v-0.54h0.48v3.54l-2.46,2.22v13.5c2.221-0.54,3.96-1.98,4.92-2.94l0.42,0.48c-2.34,2.939-4.86,5.1-8.7,5.1
		c-9.72,0-12.119-7.56-18.479-7.56c-3.9,0-6,2.58-6,5.16c0,3.96,3.18,5.46,5.46,5.46c1.86,0,2.64-0.84,3.06-1.44
		c0.479-0.78,0.36-1.62,1.14-1.62c0.3,0,0.54,0.18,0.54,0.6c0,1.8-2.4,3.18-4.8,3.18c-3.48,0-6.72-2.94-6.72-7.02
		c0-4.2,3.48-8.58,9.84-8.58c4.14,0,7.199,2.58,9.839,4.919c0.3-0.96,0.54-2.04,0.54-3.419c0-5.76-7.86-10.62-7.86-17.04
		c0-3.6,3.42-8.58,10.32-9.72c0,3.84,1.62,6.36,3.84,6.36c1.38,0,2.4-0.9,2.52-2.82c-0.66,0.66-1.26,0.96-1.86,0.96
		c-1.32,0-2.16-1.02-2.16-2.22c0-1.26,1.08-2.28,2.34-2.28c1.32,0,2.64,1.08,2.64,3.54c0,3.42-2.7,5.16-4.86,5.16
		c-1.14,0-5.1-0.54-6.24-6.54c-1.62,0.9-2.46,2.52-2.46,4.32c0,6.479,8.459,11.159,8.459,18.539c0,3.18-2.28,4.92-4.26,5.94
		c3,2.82,4.98,3.66,6.959,3.66c0.3,0,0.54,0,0.78-0.06V21.539z"/>
	<path fill="#fff" d="M35.1,19.259c3-1.92,5.221-3.72,7.26-5.7c0,0,7.141,4.62,7.439,4.8l-0.72,1.02v11.939l2.16,1.92l0.96-1.08
		l0.66,0.66c-1.26,1.32-2.58,2.88-3.78,4.26c-1.38-1.32-2.94-2.58-4.439-3.78c-1.32,1.2-2.399,2.52-3.601,3.78l-5.939-4.8
		l0.721-1.02v-11.16L35.1,19.259z M40.26,16.739v14.399l2.88,2.28l1.5-1.44V19.5L40.26,16.739z"/>
	<path fill="#fff" d="M61.079,8.76c-2.16,0-4.92-1.5-4.92-4.98c0-2.4,1.381-3.479,2.7-3.479c1.261,0,2.341,0.96,2.341,2.22
		s-0.9,2.22-2.16,2.22c-0.66,0-1.26-0.24-1.92-0.96c0.18,1.98,1.199,2.58,2.52,2.58c2.279,0,3.84-2.46,3.84-6.36
		c3.84,0.6,7.74,3.42,7.74,7.74c0,5.88-3.42,9.959-3.42,15.6c0,4.32,3.6,8.819,6.779,11.699V21.779l-1.98,1.74v0.36h-0.479v-3.48
		l2.46-2.04v-1.74c0-1.14-0.061-2.4-0.66-2.4c-0.359,0-0.9,0.42-1.141,0.72l-0.539-0.6c2.039-1.56,3.06-2.7,4.74-4.62l0.6,0.66
		c-2.04,2.28-2.221,2.04-2.221,4.8v2.52l1.92-1.74v-0.6h0.541v3.6l-2.461,2.16v13.919c1.381-1.08,3.301-2.16,4.74-3V5.52
		c3.42-1.74,4.74-4.14,5.4-5.52h0.18c0.72,1.32,1.979,2.22,3.539,2.22c1.5,0,2.641-0.78,3.36-2.22l0.479,0.12
		c-1.199,2.82-3.539,6.12-7.079,6.12c-0.36,0-0.78-0.06-1.08-0.12v23.639l0.78,1.26c-3.12,0.72-8.699,3.84-11.039,6.06
		c-4.92-6-12.24-7.86-12.24-14.759c0-7.44,6.42-9.78,6.42-15.839c0-1.02-0.301-2.94-1.439-3.24C66.119,8.46,62.219,8.76,61.079,8.76
		z"/>
	<path fill="#fff" d="M102.958,31.379c-3,1.92-5.22,3.72-7.26,5.7c0,0-7.14-4.62-7.44-4.8l0.721-1.02v-11.16l-0.721-0.84
		c3-1.92,5.221-3.72,7.26-5.7c0,0,7.141,4.62,7.44,4.8l-0.72,1.02v11.16L102.958,31.379z M97.799,19.5l-4.381-2.76v14.399
		l4.381,2.76V19.5z"/>
	<path fill="#fff" d="M105.719,38.338c0-3.78,5.459-5.34,5.459-8.399c0-1.38-1.14-2.7-3.539-3.84l-2.101,1.8l-0.66-0.72
		c2.58-2.1,5.28-4.32,7.739-6.78l-5.34-3.54l-2.399,1.98l-0.78-0.72c1.68-1.26,3.6-3,5.16-4.56l7.439,4.8l-5.219,4.5
		c2.219,1.5,4.199,2.459,4.199,4.8c0,5.339-8.459,6.12-8.459,10.679c0,1.86,1.379,2.82,3.059,2.82c1.86,0,2.641-0.84,3.061-1.44
		c0.48-0.78,0.359-1.62,1.14-1.62c0.3,0,0.54,0.18,0.54,0.6c0,1.8-2.4,3.18-4.8,3.18C107.219,41.878,105.719,40.139,105.719,38.338z
		"/>
	<path fill="#fff" d="M136.137,15.06V5.64c-0.66,0.24-1.32,0.24-1.92,0.24c-2.16,0-4.2-0.96-4.2-3c0-1.2,1.021-2.28,2.341-2.28
		c1.26,0,2.039,0.9,2.039,2.1c0,0.78-0.42,1.56-1.199,1.92c1.979,0,4.319-0.24,7.379-3.48l0.66,0.66l-0.66,0.72v28.019l0.721,0.84
		c-3,1.92-5.221,3.72-7.26,5.7c0,0-7.141-4.62-7.439-4.8l0.719-1.02v-11.16l-0.719-0.84c2.999-1.92,5.219-3.72,7.259-5.7
		L136.137,15.06z M136.137,33.899V19.5l-4.38-2.76v14.399L136.137,33.899z"/>
	<path fill="#fff" d="M148.856,31.139l4.439,2.82l2.701-2.22l0.539,0.72c-1.74,1.44-3.42,2.76-5.399,4.62l-7.44-4.8l0.721-1.02
		v-11.16l-0.721-0.84c1.98-0.9,5.101-2.76,8.7-5.7c1.56,0.24,4.8,2.1,4.8,6.12c0,5.52-4.92,6.84-7.619,6.84v-0.78
		c2.819-0.78,2.939-3.54,2.939-4.8c0-1.98-0.48-3.78-2.699-3.78c-0.301,0-0.781,0.12-0.961,0.24V31.139z"/>
	<path fill="#fff" d="M171.836,19.679c0,11.34,5.939,15.899,12.059,15.899c5.28,0,9.6-3.6,9.6-9.66
		c0-2.82-1.319-5.939-4.139-5.939c-0.48,0-0.9,0.12-1.44,0.54l-0.42-0.6l7.8-5.58l0.479,0.6c-0.54,0.54-0.78,0.96-0.78,1.38
		c0,1.98,3,3.42,3,8.7c0,6.42-5.699,12.06-14.1,12.06c-8.398,0-17.099-5.76-17.099-16.079c0-7.5,3.659-13.62,11.579-16.859
		c2.04-2.1,4.32-3.54,7.859-4.14c0,3.84,1.621,6.36,3.9,6.36c1.32,0,2.34-0.9,2.52-2.82c-0.66,0.66-1.26,0.96-1.92,0.96
		c-1.26,0-2.16-1.02-2.16-2.22c0-1.26,1.08-2.28,2.34-2.28c1.32,0,2.641,1.08,2.641,3.54c0,3.42-2.699,5.16-4.859,5.16
		c-1.141,0-5.1-0.54-6.24-6.54c-1.92,0.9-2.34,3.72-2.34,4.8c0,6.06,7.8,12.06,7.8,18.299c0,2.88-1.2,6.18-6.84,8.22l-0.239-0.3
		c1.979-1.5,3.18-3.42,3.18-5.34c0-6.6-7.92-11.04-7.92-17.519c0-1.02,0.18-3.24,1.439-4.8
		C173.875,8.64,171.836,13.2,171.836,19.679z"/>
	<path fill="#fff" d="M200.096,19.259c3-1.92,5.221-3.72,7.26-5.7c0,0,7.141,4.62,7.44,4.8l-0.72,1.02v11.939l2.16,1.92
		l0.959-1.08l0.66,0.66c-1.26,1.32-2.58,2.88-3.779,4.26c-1.381-1.32-2.939-2.58-4.439-3.78c-1.32,1.2-2.4,2.52-3.601,3.78
		l-5.94-4.8l0.721-1.02v-11.16L200.096,19.259z M205.256,16.739v14.399l2.881,2.28l1.5-1.44V19.5L205.256,16.739z"/>
	<path fill="#fff" d="M223.317,31.139l2.279,2.28l1.199-1.26l0.66,0.66c-1.199,1.32-3,2.88-4.139,4.26
		c-1.441-1.5-3.721-3.54-5.16-4.8l0.72-1.02V6.66l-1.319-1.02c4.559-1.98,4.739-5.04,8.1-5.04c1.199,0,2.1,0.66,2.1,1.62
		c0,0.72-0.541,1.26-1.2,1.26c-0.601,0-1.08-0.54-1.08-1.14c0-0.36,0.06-0.66,0.36-0.84c-2.461,0.24-2.52,2.34-2.52,3.42V31.139z"/>
	<path fill="#fff" d="M234.896,33.419l1.2-1.26l0.66,0.66c-1.2,1.32-3,2.88-4.141,4.26c-1.439-1.5-3.719-3.54-5.159-4.8
		l0.72-1.02v-13.62l-1.32-1.14l2.58-2.94l3.9,2.7l-0.721,1.02v13.859L234.896,33.419z M230.036,7.14c1.381,0,2.521,1.08,2.521,2.52
		c0,1.38-1.14,2.52-2.521,2.52c-1.439,0-2.52-1.14-2.52-2.52C227.516,8.22,228.596,7.14,230.036,7.14z"/>
	<path fill="#fff" d="M237.055,19.259c3.301-2.1,4.98-5.7,8.34-5.7c2.76,0,4.26,1.8,4.26,3.54c0,1.26-1.08,2.34-2.34,2.34
		s-2.34-1.08-2.34-2.16c0-0.6,0.121-1.74,2.041-2.28c-0.541-0.36-1.201-0.48-1.801-0.48c-1.619,0-3,1.14-3,3v13.619l4.439,2.82
		l2.221-1.8l0.6,0.72c-1.979,1.5-3,2.34-4.979,4.2l-7.44-4.8l0.721-1.02v-11.16L237.055,19.259z"/>
	<path fill="#fff" d="M258.235,33.419l1.201-1.26l0.659,0.66c-1.2,1.32-2.999,2.88-4.14,4.26c-1.439-1.5-3.72-3.54-5.16-4.8
		l0.721-1.02v-13.62l-1.32-1.14l2.58-2.94l3.9,2.7l-0.721,1.02v13.859L258.235,33.419z M253.375,7.14c1.381,0,2.52,1.08,2.52,2.52
		c0,1.38-1.139,2.52-2.52,2.52c-1.439,0-2.52-1.14-2.52-2.52C250.856,8.22,251.936,7.14,253.375,7.14z"/>
	<path fill="#fff" d="M260.395,19.259c3-1.92,5.221-3.72,7.26-5.7c0,0,7.141,4.62,7.439,4.8l-0.72,1.02v11.939l2.16,1.92
		l0.96-1.08l0.66,0.66c-1.26,1.32-2.58,2.88-3.78,4.26c-1.38-1.32-2.94-2.58-4.439-3.78c-1.32,1.2-2.399,2.52-3.601,3.78l-5.939-4.8
		l0.721-1.02v-11.16L260.395,19.259z M265.555,16.739v14.399l2.88,2.28l1.5-1.44V19.5L265.555,16.739z"/>
</g>
</svg>
